<svg id="SvgjsSvg1001" width="288" height="288" xmlns="http://www.w3.org/2000/svg" version="1.1" xmlns:xlink="http://www.w3.org/1999/xlink" xmlns:svgjs="http://svgjs.com/svgjs"><defs id="SvgjsDefs1002"></defs><g id="SvgjsG1008" transform="matrix(1,0,0,1,0,0)"><svg xmlns="http://www.w3.org/2000/svg" enable-background="new 0 0 408.576 408.576" viewBox="0 0 408.576 408.576" width="288" height="288"><path d="M204.288,0C91.648,0,0,91.648,0,204.288s91.648,204.288,204.288,204.288s204.288-91.648,204.288-204.288
			S316.928,0,204.288,0z M318.464,150.528l-130.56,129.536c-7.68,7.68-19.968,8.192-28.16,0.512L90.624,217.6
			c-8.192-7.68-8.704-20.48-1.536-28.672c7.68-8.192,20.48-8.704,28.672-1.024l54.784,50.176L289.28,121.344
			c8.192-8.192,20.992-8.192,29.184,0C326.656,129.536,326.656,142.336,318.464,150.528z" fill="#f59e0b" class="color000 svgShape" data-darkreader-inline-fill="" style="--darkreader-inline-fill:#c37e08;"></path></svg></g></svg>